<svg width="150" height="136" viewBox="0 0 150 136" fill="none" xmlns="http://www.w3.org/2000/svg">
<g opacity="0.4">
<ellipse cx="7.60874" cy="90.5065" rx="7.60879" ry="7.54229" transform="rotate(180 7.60874 90.5065)" fill="#B7B5FE"/>
<ellipse cx="129.35" cy="105.594" rx="5.07252" ry="5.02819" transform="rotate(180 129.35 105.594)" fill="#E95D3E"/>
<circle cx="7.57561" cy="7.57561" r="7.57561" transform="matrix(-0.710203 0.703997 -0.710203 -0.703997 139.241 10.666)" fill="#FEB5B5"/>
<circle cx="3.78781" cy="3.78781" r="3.78781" transform="matrix(-0.710203 0.703997 -0.710203 -0.703997 141.034 30.2197)" fill="#FAD966"/>
<ellipse cx="26.6309" cy="131.991" rx="3.80439" ry="3.77114" transform="rotate(180 26.6309 131.991)" fill="#374A48"/>
<ellipse cx="19.022" cy="116.907" rx="3.80439" ry="3.77114" transform="rotate(180 19.022 116.907)" fill="#FAF6FA"/>
<g clip-path="url(#clip0_97_2213)">
<path fill-rule="evenodd" clip-rule="evenodd" d="M56.9167 17.825C59.8583 17.2833 62.8958 17 66 17C93.6125 17 116 39.3875 116 67C116 94.6125 93.6125 117 66 117C62.9 117 59.8625 116.717 56.9167 116.175C56.3705 116.085 55.8476 115.888 55.3787 115.593C54.9098 115.299 54.5041 114.915 54.1855 114.462C53.8668 114.01 53.6416 113.498 53.5228 112.957C53.4041 112.417 53.3942 111.858 53.4939 111.313C53.5935 110.769 53.8007 110.25 54.1032 109.786C54.4057 109.323 54.7976 108.924 55.2559 108.614C55.7142 108.303 56.2297 108.087 56.7724 107.978C57.3151 107.869 57.8741 107.87 58.4167 107.979C60.875 108.429 63.4083 108.667 66 108.667C89.0125 108.667 107.667 90.0125 107.667 67C107.667 43.9875 89.0125 25.3333 66 25.3333C63.4083 25.3333 60.875 25.5708 58.4167 26.0208C57.8741 26.1303 57.3151 26.1306 56.7724 26.0217C56.2297 25.9127 55.7142 25.6968 55.2559 25.3863C54.7976 25.0759 54.4057 24.6773 54.1032 24.2138C53.8007 23.7503 53.5935 23.2311 53.4939 22.6866C53.3942 22.1421 53.4041 21.5833 53.5228 21.0426C53.6416 20.502 53.8668 19.9904 54.1855 19.5378C54.5041 19.0852 54.9098 18.7007 55.3787 18.4066C55.8476 18.1125 56.3705 17.9148 56.9167 17.825ZM46.6875 25.2083C46.9619 25.6821 47.1402 26.2053 47.2123 26.7481C47.2844 27.2908 47.2488 27.8425 47.1075 28.3714C46.9663 28.9004 46.7222 29.3964 46.3891 29.831C46.0561 30.2655 45.6407 30.6302 45.1667 30.9042C39.4834 34.1958 34.6535 38.7774 31.0667 44.2792C30.4622 45.2052 29.5146 45.8532 28.4324 46.0806C27.3501 46.308 26.2219 46.0961 25.2958 45.4917C24.3698 44.8872 23.7218 43.9396 23.4944 42.8574C23.267 41.7751 23.4789 40.6469 24.0833 39.7208C28.3877 33.1255 34.1825 27.6347 41 23.6917C41.4738 23.4173 41.997 23.2389 42.5398 23.1669C43.0825 23.0948 43.6341 23.1304 44.1631 23.2716C44.6921 23.4129 45.188 23.657 45.6226 23.99C46.0572 24.323 46.4219 24.7385 46.6958 25.2125L46.6875 25.2083ZM89.6875 51.4667C90.0854 51.8425 90.4054 52.2931 90.6291 52.7926C90.8529 53.2921 90.976 53.8308 90.9915 54.378C91.0069 54.9251 90.9145 55.4699 90.7193 55.9813C90.5242 56.4927 90.2302 56.9606 89.8542 57.3583L63.0542 85.7167C62.4302 86.3835 61.6759 86.9151 60.838 87.2786C60.0002 87.642 59.0966 87.8295 58.1833 87.8295C57.2701 87.8295 56.3665 87.642 55.5287 87.2786C54.6908 86.9151 53.9365 86.3835 53.3125 85.7167L42.1333 73.8917C41.7574 73.4939 41.4635 73.0259 41.2685 72.5146C41.0734 72.0032 40.981 71.4584 40.9965 70.9113C41.0277 69.8064 41.4966 68.7592 42.3 68C43.1034 67.2408 44.1754 66.8319 45.2803 66.8631C46.3853 66.8944 47.4325 67.3633 48.1917 68.1667L58.1833 78.7375L83.8 51.6333C84.1758 51.2354 84.6264 50.9154 85.1259 50.6917C85.6255 50.468 86.1642 50.3448 86.7113 50.3294C87.2584 50.3139 87.8033 50.4064 88.3146 50.6015C88.826 50.7966 89.2939 51.0906 89.6917 51.4667H89.6875ZM22.3 52.525C23.3755 52.7758 24.3074 53.4433 24.8911 54.3808C25.4747 55.3184 25.6622 56.4493 25.4125 57.525C24.7083 60.5667 24.3333 63.7333 24.3333 67C24.3333 70.2667 24.7083 73.4333 25.4167 76.475C25.6664 77.5519 25.4781 78.6839 24.8933 79.622C24.3084 80.56 23.3748 81.2273 22.2979 81.4771C21.221 81.7268 20.089 81.5386 19.151 80.9537C18.2129 80.3688 17.5456 79.4352 17.2958 78.3583C16.45 74.7083 16 70.9 16 67C16 63.1 16.45 59.2917 17.2958 55.6417C17.5457 54.5654 18.2128 53.6324 19.1505 53.048C20.0881 52.4635 21.2237 52.2754 22.3 52.525ZM25.3 88.5083C25.7587 88.2088 26.2719 88.0027 26.8103 87.9017C27.3487 87.8008 27.9017 87.807 28.4377 87.92C28.9737 88.033 29.4822 88.2506 29.934 88.5603C30.3858 88.87 30.7721 89.2658 31.0708 89.725C34.657 95.2248 39.4854 99.8048 45.1667 103.096C46.1231 103.649 46.8204 104.56 47.1053 105.628C47.3901 106.696 47.2391 107.833 46.6854 108.79C46.1318 109.746 45.2209 110.443 44.1531 110.728C43.0853 111.013 41.9481 110.862 40.9917 110.308C34.1768 106.363 28.3849 100.871 24.0833 94.275C23.7845 93.8165 23.5789 93.3036 23.4783 92.7656C23.3777 92.2277 23.3841 91.6751 23.497 91.1396C23.61 90.6041 23.8274 90.0961 24.1368 89.6446C24.4461 89.1931 24.8414 88.807 25.3 88.5083Z" fill="url(#paint0_linear_97_2213)"/>
</g>
</g>
<defs>
<linearGradient id="paint0_linear_97_2213" x1="66" y1="17" x2="66" y2="117" gradientUnits="userSpaceOnUse">
<stop stop-color="#F12711"/>
<stop offset="1" stop-color="#F5BA3D"/>
</linearGradient>
<clipPath id="clip0_97_2213">
<rect width="100" height="100" fill="white" transform="translate(16 17)"/>
</clipPath>
</defs>
</svg>
