<svg width="150" height="136" viewBox="0 0 150 136" fill="none" xmlns="http://www.w3.org/2000/svg">
<g opacity="0.4">
<ellipse cx="7.60874" cy="90.5075" rx="7.60879" ry="7.54229" transform="rotate(180 7.60874 90.5075)" fill="#B7B5FE"/>
<ellipse cx="129.35" cy="105.594" rx="5.07252" ry="5.02819" transform="rotate(180 129.35 105.594)" fill="#E95D3E"/>
<circle cx="7.57561" cy="7.57561" r="7.57561" transform="matrix(-0.710203 0.703997 -0.710203 -0.703997 139.24 10.666)" fill="#FEB5B5"/>
<circle cx="3.78781" cy="3.78781" r="3.78781" transform="matrix(-0.710203 0.703997 -0.710203 -0.703997 141.033 30.2197)" fill="#FAD966"/>
<ellipse cx="26.6309" cy="131.991" rx="3.80439" ry="3.77114" transform="rotate(180 26.6309 131.991)" fill="#374A48"/>
<ellipse cx="19.0221" cy="116.908" rx="3.80439" ry="3.77114" transform="rotate(180 19.0221 116.908)" fill="#FAF6FA"/>
<g clip-path="url(#clip0_97_2145)">
<path d="M82.1945 101.375H91.4734C84.2996 106.408 75.6832 109.188 66.7814 109.188C43.0883 109.188 23.8127 89.9119 23.8127 66.2188C23.8127 61.3029 24.635 56.4838 26.2566 51.8955L18.8906 49.2922C16.9725 54.7189 16 60.4139 16 66.2188C16 94.2838 38.7121 117 66.7812 117C78.0812 117 88.9934 113.214 97.8195 106.404V117H105.632V93.5625H82.1945V101.375ZM66 70.9062C68.1574 70.9062 69.9062 69.1574 69.9062 67C69.9062 64.8426 68.1574 63.0938 66 63.0938C63.8426 63.0938 62.0938 64.8426 62.0938 67C62.0938 69.1574 63.8426 70.9062 66 70.9062ZM38.6562 63.0938V70.9062H46.8615C47.3615 73.3543 48.3291 75.683 49.7113 77.7645L43.9029 83.5729L49.4272 89.0971L55.2355 83.2887C57.317 84.6709 59.6457 85.6385 62.0938 86.1385V94.3438H69.9062V86.1385C72.3543 85.6385 74.683 84.6709 76.7645 83.2887L82.5729 89.0971L88.0971 83.5729L82.2887 77.7645C83.6709 75.683 84.6385 73.3543 85.1385 70.9062H93.3438V63.0938H85.1385C84.6385 60.6457 83.6709 58.317 82.2887 56.2355L88.0971 50.4272L82.5729 44.9029L76.7645 50.7113C74.683 49.3291 72.3543 48.3615 69.9062 47.8615V39.6562H62.0938V47.8615C59.6457 48.3615 57.317 49.3291 55.2355 50.7113L49.4272 44.9029L43.9029 50.4272L49.7113 56.2355C48.3291 58.317 47.3615 60.6457 46.8615 63.0938H38.6562ZM66 55.2812C72.4617 55.2812 77.7188 60.5383 77.7188 67C77.7188 73.4617 72.4617 78.7188 66 78.7188C59.5383 78.7188 54.2812 73.4617 54.2812 67C54.2812 60.5383 59.5383 55.2812 66 55.2812ZM65.2188 17C53.9225 17 43.0133 20.7834 34.1885 27.5893V17H26.376V40.4375H49.8135V32.625H40.5266C47.7006 27.5916 56.3172 24.8125 65.2188 24.8125C88.9119 24.8125 108.188 44.0881 108.188 67.7812C108.188 72.6971 107.365 77.5162 105.744 82.1045L113.11 84.7078C115.028 79.2811 116 73.5861 116 67.7812C116 39.7162 93.2879 17 65.2188 17Z" fill="#2AF598"/>
</g>
</g>
<defs>
<clipPath id="clip0_97_2145">
<rect width="100" height="100" fill="white" transform="translate(16 17)"/>
</clipPath>
</defs>
</svg>
